<mxGraphModel dx="963" dy="535" grid="1" gridSize="10" guides="1" tooltips="1" connect="1" arrows="1" fold="1" page="1" pageScale="1" pageWidth="827" pageHeight="1169" math="0" shadow="0">
  <root>
    <mxCell id="0" />
    <mxCell id="1" parent="0" />
    <mxCell id="72abDSZ2eXIb11eT0pvc-1" value="" style="verticalLabelPosition=bottom;verticalAlign=top;html=1;shadow=0;dashed=0;strokeWidth=1;shape=mxgraph.android.phone2;strokeColor=#c0c0c0;" parent="1" vertex="1">
      <mxGeometry x="560" y="40" width="200" height="390" as="geometry" />
    </mxCell>
    <mxCell id="72abDSZ2eXIb11eT0pvc-2" value="" style="endArrow=classic;html=1;exitX=1;exitY=1;exitDx=0;exitDy=0;" parent="1" source="72abDSZ2eXIb11eT0pvc-9" edge="1">
      <mxGeometry width="50" height="50" relative="1" as="geometry">
        <mxPoint x="550" y="110" as="sourcePoint" />
        <mxPoint x="280" y="110" as="targetPoint" />
      </mxGeometry>
    </mxCell>
    <mxCell id="72abDSZ2eXIb11eT0pvc-3" value="Register" style="text;html=1;strokeColor=none;fillColor=none;align=center;verticalAlign=middle;whiteSpace=wrap;rounded=0;" parent="1" vertex="1">
      <mxGeometry x="380" y="90" width="40" height="20" as="geometry" />
    </mxCell>
    <mxCell id="72abDSZ2eXIb11eT0pvc-4" value="" style="endArrow=classic;html=1;" parent="1" edge="1">
      <mxGeometry width="50" height="50" relative="1" as="geometry">
        <mxPoint x="280" y="150" as="sourcePoint" />
        <mxPoint x="550" y="150" as="targetPoint" />
      </mxGeometry>
    </mxCell>
    <mxCell id="72abDSZ2eXIb11eT0pvc-5" value="Login Data" style="text;html=1;strokeColor=none;fillColor=none;align=center;verticalAlign=middle;whiteSpace=wrap;rounded=0;" parent="1" vertex="1">
      <mxGeometry x="360" y="130" width="80" height="20" as="geometry" />
    </mxCell>
    <mxCell id="72abDSZ2eXIb11eT0pvc-6" value="" style="endArrow=classic;html=1;" parent="1" edge="1">
      <mxGeometry width="50" height="50" relative="1" as="geometry">
        <mxPoint x="554" y="200" as="sourcePoint" />
        <mxPoint x="284" y="200" as="targetPoint" />
      </mxGeometry>
    </mxCell>
    <mxCell id="72abDSZ2eXIb11eT0pvc-8" value="Login / Authen." style="text;html=1;strokeColor=none;fillColor=none;align=center;verticalAlign=middle;whiteSpace=wrap;rounded=0;" parent="1" vertex="1">
      <mxGeometry x="354" y="180" width="110" height="20" as="geometry" />
    </mxCell>
    <mxCell id="72abDSZ2eXIb11eT0pvc-9" value="&lt;font color=&quot;#00cc00&quot;&gt;EMail, deviceID&lt;/font&gt;" style="text;html=1;strokeColor=none;fillColor=none;align=center;verticalAlign=middle;whiteSpace=wrap;rounded=0;" parent="1" vertex="1">
      <mxGeometry x="410" y="90" width="136" height="20" as="geometry" />
    </mxCell>
    <mxCell id="72abDSZ2eXIb11eT0pvc-11" value="" style="endArrow=classic;html=1;" parent="1" edge="1">
      <mxGeometry width="50" height="50" relative="1" as="geometry">
        <mxPoint x="280" y="230" as="sourcePoint" />
        <mxPoint x="550" y="230" as="targetPoint" />
      </mxGeometry>
    </mxCell>
    <mxCell id="72abDSZ2eXIb11eT0pvc-12" value="Ok" style="text;html=1;strokeColor=none;fillColor=none;align=center;verticalAlign=middle;whiteSpace=wrap;rounded=0;" parent="1" vertex="1">
      <mxGeometry x="384" y="210" width="40" height="20" as="geometry" />
    </mxCell>
    <mxCell id="72abDSZ2eXIb11eT0pvc-13" value="&lt;font color=&quot;#00cc00&quot;&gt;SessionKey&lt;/font&gt;" style="text;html=1;strokeColor=none;fillColor=none;align=center;verticalAlign=middle;whiteSpace=wrap;rounded=0;" parent="1" vertex="1">
      <mxGeometry x="434" y="210" width="40" height="20" as="geometry" />
    </mxCell>
    <mxCell id="72abDSZ2eXIb11eT0pvc-14" value="" style="endArrow=classic;html=1;" parent="1" edge="1">
      <mxGeometry width="50" height="50" relative="1" as="geometry">
        <mxPoint x="540" y="270" as="sourcePoint" />
        <mxPoint x="280" y="270" as="targetPoint" />
      </mxGeometry>
    </mxCell>
    <mxCell id="72abDSZ2eXIb11eT0pvc-15" value="Backup" style="text;html=1;strokeColor=none;fillColor=none;align=center;verticalAlign=middle;whiteSpace=wrap;rounded=0;" parent="1" vertex="1">
      <mxGeometry x="380" y="250" width="40" height="20" as="geometry" />
    </mxCell>
    <mxCell id="72abDSZ2eXIb11eT0pvc-16" value="" style="endArrow=classic;html=1;" parent="1" edge="1">
      <mxGeometry width="50" height="50" relative="1" as="geometry">
        <mxPoint x="286" y="300" as="sourcePoint" />
        <mxPoint x="546" y="300" as="targetPoint" />
        <Array as="points">
          <mxPoint x="476" y="300" />
        </Array>
      </mxGeometry>
    </mxCell>
    <mxCell id="72abDSZ2eXIb11eT0pvc-17" value="Ok" style="text;html=1;strokeColor=none;fillColor=none;align=center;verticalAlign=middle;whiteSpace=wrap;rounded=0;" parent="1" vertex="1">
      <mxGeometry x="380" y="280" width="40" height="20" as="geometry" />
    </mxCell>
    <mxCell id="72abDSZ2eXIb11eT0pvc-22" value="" style="endArrow=classic;html=1;" parent="1" edge="1">
      <mxGeometry width="50" height="50" relative="1" as="geometry">
        <mxPoint x="550" y="340" as="sourcePoint" />
        <mxPoint x="280" y="340" as="targetPoint" />
      </mxGeometry>
    </mxCell>
    <mxCell id="72abDSZ2eXIb11eT0pvc-23" value="Request Update" style="text;html=1;strokeColor=none;fillColor=none;align=center;verticalAlign=middle;whiteSpace=wrap;rounded=0;" parent="1" vertex="1">
      <mxGeometry x="360" y="320" width="110" height="20" as="geometry" />
    </mxCell>
    <mxCell id="72abDSZ2eXIb11eT0pvc-25" value="Send Changes from other devices" style="text;html=1;strokeColor=none;fillColor=none;align=center;verticalAlign=middle;whiteSpace=wrap;rounded=0;" parent="1" vertex="1">
      <mxGeometry x="320" y="340" width="200" height="20" as="geometry" />
    </mxCell>
    <mxCell id="72abDSZ2eXIb11eT0pvc-26" value="" style="endArrow=classic;html=1;" parent="1" edge="1">
      <mxGeometry width="50" height="50" relative="1" as="geometry">
        <mxPoint x="276" y="360" as="sourcePoint" />
        <mxPoint x="546" y="360" as="targetPoint" />
      </mxGeometry>
    </mxCell>
    <mxCell id="72abDSZ2eXIb11eT0pvc-28" value="" style="rounded=0;whiteSpace=wrap;html=1;" parent="1" vertex="1">
      <mxGeometry x="70" y="40" width="200" height="380" as="geometry" />
    </mxCell>
    <mxCell id="72abDSZ2eXIb11eT0pvc-29" value="&lt;font style=&quot;font-size: 18px&quot;&gt;&lt;b&gt;Rest API&lt;/b&gt;&lt;/font&gt;" style="text;html=1;strokeColor=none;fillColor=none;align=center;verticalAlign=middle;whiteSpace=wrap;rounded=0;" parent="1" vertex="1">
      <mxGeometry x="120" y="50" width="100" height="20" as="geometry" />
    </mxCell>
    <mxCell id="72abDSZ2eXIb11eT0pvc-30" value="" style="rounded=0;whiteSpace=wrap;html=1;fontColor=#CCCCCC;strokeColor=#CCCCCC;" parent="1" vertex="1">
      <mxGeometry x="262" y="530" width="190" height="120" as="geometry" />
    </mxCell>
    <mxCell id="72abDSZ2eXIb11eT0pvc-31" value="&lt;font style=&quot;font-size: 18px&quot;&gt;Socket&lt;/font&gt;" style="text;html=1;align=center;verticalAlign=middle;whiteSpace=wrap;rounded=0;fontColor=#CCCCCC;" parent="1" vertex="1">
      <mxGeometry x="337" y="535" width="40" height="20" as="geometry" />
    </mxCell>
    <mxCell id="72abDSZ2eXIb11eT0pvc-32" value="&lt;font style=&quot;font-size: 17px&quot;&gt;&lt;b&gt;Live Updates&lt;/b&gt;&lt;/font&gt;" style="text;html=1;align=center;verticalAlign=middle;whiteSpace=wrap;rounded=0;fontColor=#CCCCCC;" parent="1" vertex="1">
      <mxGeometry x="319" y="470" width="170" height="20" as="geometry" />
    </mxCell>
    <mxCell id="72abDSZ2eXIb11eT0pvc-34" value="" style="verticalLabelPosition=bottom;verticalAlign=top;html=1;shadow=0;dashed=0;strokeWidth=1;shape=mxgraph.android.phone2;strokeColor=#c0c0c0;" parent="1" vertex="1">
      <mxGeometry x="602" y="520" width="96" height="130" as="geometry" />
    </mxCell>
    <mxCell id="72abDSZ2eXIb11eT0pvc-35" value="" style="endArrow=classic;startArrow=classic;html=1;fontColor=#CCCCCC;strokeColor=#CCCCCC;" parent="1" edge="1">
      <mxGeometry width="50" height="50" relative="1" as="geometry">
        <mxPoint x="486" y="589.5" as="sourcePoint" />
        <mxPoint x="566" y="589.5" as="targetPoint" />
        <Array as="points">
          <mxPoint x="536" y="589.5" />
        </Array>
      </mxGeometry>
    </mxCell>
    <mxCell id="72abDSZ2eXIb11eT0pvc-37" value="" style="rounded=0;whiteSpace=wrap;html=1;strokeColor=#CCCCCC;" parent="1" vertex="1">
      <mxGeometry x="132" y="510" width="100" height="140" as="geometry" />
    </mxCell>
    <mxCell id="72abDSZ2eXIb11eT0pvc-38" value="&lt;b&gt;Rest API&lt;/b&gt;" style="text;html=1;strokeColor=none;fillColor=none;align=center;verticalAlign=middle;whiteSpace=wrap;rounded=0;fontColor=#CCCCCC;" parent="1" vertex="1">
      <mxGeometry x="152" y="520" width="60" height="20" as="geometry" />
    </mxCell>
    <mxCell id="72abDSZ2eXIb11eT0pvc-39" value="" style="endArrow=classic;html=1;strokeColor=#CCCCCC;fontColor=#CCCCCC;" parent="1" edge="1">
      <mxGeometry width="50" height="50" relative="1" as="geometry">
        <mxPoint x="262" y="561" as="sourcePoint" />
        <mxPoint x="232" y="561" as="targetPoint" />
      </mxGeometry>
    </mxCell>
    <mxCell id="72abDSZ2eXIb11eT0pvc-40" value="" style="endArrow=classic;html=1;strokeColor=#CCCCCC;fontColor=#CCCCCC;entryX=0.005;entryY=0.592;entryDx=0;entryDy=0;entryPerimeter=0;" parent="1" target="72abDSZ2eXIb11eT0pvc-30" edge="1">
      <mxGeometry width="50" height="50" relative="1" as="geometry">
        <mxPoint x="234" y="601" as="sourcePoint" />
        <mxPoint x="572" y="300" as="targetPoint" />
      </mxGeometry>
    </mxCell>
    <mxCell id="XJLlO4hYRqrhLlad89DW-1" style="edgeStyle=orthogonalEdgeStyle;rounded=0;orthogonalLoop=1;jettySize=auto;html=1;exitX=0.5;exitY=1;exitDx=0;exitDy=0;" edge="1" parent="1" source="72abDSZ2eXIb11eT0pvc-32" target="72abDSZ2eXIb11eT0pvc-32">
      <mxGeometry relative="1" as="geometry" />
    </mxCell>
    <mxCell id="XJLlO4hYRqrhLlad89DW-3" value="&lt;font style=&quot;font-size: 18px&quot;&gt;&lt;b&gt;User Auth.&lt;/b&gt;&lt;/font&gt;" style="text;html=1;strokeColor=none;fillColor=none;align=center;verticalAlign=middle;whiteSpace=wrap;rounded=0;" vertex="1" parent="1">
      <mxGeometry x="279.5" y="10" width="221" height="20" as="geometry" />
    </mxCell>
    <mxCell id="XJLlO4hYRqrhLlad89DW-4" value="&lt;b&gt;&lt;font style=&quot;font-size: 18px&quot;&gt;Shopping Lists&lt;/font&gt;&lt;/b&gt;" style="text;html=1;strokeColor=none;fillColor=none;align=center;verticalAlign=middle;whiteSpace=wrap;rounded=0;" vertex="1" parent="1">
      <mxGeometry x="262" y="700" width="266" height="20" as="geometry" />
    </mxCell>
    <mxCell id="XJLlO4hYRqrhLlad89DW-5" value="" style="verticalLabelPosition=bottom;verticalAlign=top;html=1;shadow=0;dashed=0;strokeWidth=1;shape=mxgraph.android.phone2;strokeColor=#c0c0c0;" vertex="1" parent="1">
      <mxGeometry x="560" y="760" width="160" height="270" as="geometry" />
    </mxCell>
    <mxCell id="XJLlO4hYRqrhLlad89DW-6" value="" style="rounded=0;whiteSpace=wrap;html=1;" vertex="1" parent="1">
      <mxGeometry x="70" y="760" width="160" height="270" as="geometry" />
    </mxCell>
    <mxCell id="XJLlO4hYRqrhLlad89DW-7" value="Rest API" style="text;html=1;strokeColor=none;fillColor=none;align=center;verticalAlign=middle;whiteSpace=wrap;rounded=0;" vertex="1" parent="1">
      <mxGeometry x="95" y="770" width="110" height="10" as="geometry" />
    </mxCell>
    <mxCell id="XJLlO4hYRqrhLlad89DW-8" value="" style="endArrow=classic;html=1;" edge="1" parent="1">
      <mxGeometry width="50" height="50" relative="1" as="geometry">
        <mxPoint x="530" y="800" as="sourcePoint" />
        <mxPoint x="260" y="800" as="targetPoint" />
      </mxGeometry>
    </mxCell>
    <mxCell id="XJLlO4hYRqrhLlad89DW-9" value="Get Shopping List ID" style="text;html=1;strokeColor=none;fillColor=none;align=center;verticalAlign=middle;whiteSpace=wrap;rounded=0;" vertex="1" parent="1">
      <mxGeometry x="302" y="780" width="196" height="20" as="geometry" />
    </mxCell>
    <mxCell id="XJLlO4hYRqrhLlad89DW-10" value="" style="endArrow=none;html=1;endFill=0;startArrow=classic;startFill=1;" edge="1" parent="1">
      <mxGeometry width="50" height="50" relative="1" as="geometry">
        <mxPoint x="532" y="820" as="sourcePoint" />
        <mxPoint x="262" y="820" as="targetPoint" />
      </mxGeometry>
    </mxCell>
    <mxCell id="XJLlO4hYRqrhLlad89DW-11" value="SyncID" style="text;html=1;strokeColor=none;fillColor=none;align=center;verticalAlign=middle;whiteSpace=wrap;rounded=0;" vertex="1" parent="1">
      <mxGeometry x="297" y="800" width="196" height="20" as="geometry" />
    </mxCell>
    <mxCell id="XJLlO4hYRqrhLlad89DW-12" value="" style="endArrow=classic;html=1;startArrow=none;startFill=0;endFill=1;" edge="1" parent="1">
      <mxGeometry width="50" height="50" relative="1" as="geometry">
        <mxPoint x="524" y="880" as="sourcePoint" />
        <mxPoint x="254" y="880" as="targetPoint" />
      </mxGeometry>
    </mxCell>
    <mxCell id="XJLlO4hYRqrhLlad89DW-13" value="Post ShoppingList" style="text;html=1;strokeColor=none;fillColor=none;align=center;verticalAlign=middle;whiteSpace=wrap;rounded=0;" vertex="1" parent="1">
      <mxGeometry x="296" y="860" width="196" height="20" as="geometry" />
    </mxCell>
    <mxCell id="XJLlO4hYRqrhLlad89DW-14" value="" style="endArrow=none;html=1;endFill=0;startArrow=classic;startFill=1;" edge="1" parent="1">
      <mxGeometry width="50" height="50" relative="1" as="geometry">
        <mxPoint x="526" y="900" as="sourcePoint" />
        <mxPoint x="256" y="900" as="targetPoint" />
      </mxGeometry>
    </mxCell>
    <mxCell id="XJLlO4hYRqrhLlad89DW-15" value="Added Status" style="text;html=1;strokeColor=none;fillColor=none;align=center;verticalAlign=middle;whiteSpace=wrap;rounded=0;" vertex="1" parent="1">
      <mxGeometry x="291" y="880" width="196" height="20" as="geometry" />
    </mxCell>
  </root>
</mxGraphModel>
